<?xml version="1.0" standalone="no"?>
<!DOCTYPE svg PUBLIC "-//W3C//DTD SVG 20010904//EN"
 "http://www.w3.org/TR/2001/REC-SVG-20010904/DTD/svg10.dtd">
<svg version="1.0" xmlns="http://www.w3.org/2000/svg"
 width="1024.000000pt" height="576.000000pt" viewBox="0 0 1024.000000 576.000000"
 preserveAspectRatio="xMidYMid meet">

<g transform="translate(0.000000,576.000000) scale(0.100000,-0.100000)"
fill="#000000" stroke="none">
<path d="M277 3854 c-27 -7 -55 -18 -63 -25 -12 -10 -15 -10 -12 2 4 20 -125
30 -170 13 l-32 -13 0 -1915 0 -1916 1764 0 1763 0 39 26 c118 79 328 282 355
343 11 25 32 61 46 80 17 22 21 32 11 29 -31 -12 -150 -48 -159 -48 -38 0 41
55 238 164 84 48 117 73 194 154 86 90 91 97 69 102 -22 5 -19 9 30 37 106 60
230 210 352 424 72 127 94 155 111 140 9 -7 13 1 15 29 2 31 -2 40 -17 45 -24
7 -106 97 -128 139 -25 48 -22 123 7 181 28 55 24 54 207 92 87 18 106 14 80
-15 -10 -10 -17 -26 -17 -35 0 -24 -27 -21 -33 4 -8 31 -47 21 -69 -20 -10
-18 -18 -35 -16 -36 4 -4 150 20 208 34 25 6 50 11 56 11 16 0 24 -130 10
-153 -8 -13 -7 -20 4 -27 12 -8 11 -11 -8 -16 -18 -5 -20 -9 -11 -20 15 -18
12 -21 -35 -30 -34 -6 -38 -5 -33 10 4 9 2 16 -4 16 -20 0 -49 -21 -49 -35 0
-8 -6 -15 -12 -15 -10 0 -9 -3 0 -9 9 -5 13 -23 12 -47 -4 -67 -2 -74 25 -74
27 0 29 4 25 86 -2 50 -1 51 30 58 58 11 60 10 60 -44 0 -38 -4 -50 -15 -50
-8 0 -15 5 -15 10 0 6 -4 10 -10 10 -5 0 -10 -9 -10 -21 0 -16 4 -19 19 -14
14 4 21 0 26 -14 3 -12 4 -25 1 -29 -3 -5 1 -18 9 -28 14 -18 15 -18 33 5 19
23 19 23 33 4 14 -19 62 -38 86 -34 7 1 13 -7 13 -18 0 -15 -5 -19 -17 -14
-17 6 -17 5 -2 -13 9 -10 19 -31 23 -46 11 -47 -23 -60 -146 -56 -90 3 -109 7
-153 31 -27 15 -58 41 -67 57 -19 33 -33 38 -42 14 -8 -20 12 -57 25 -48 16 9
104 -85 91 -98 -7 -7 -14 -4 -21 11 -7 12 -18 21 -26 21 -22 0 -18 -14 8 -25
12 -6 27 -20 32 -33 13 -30 47 -38 109 -25 48 10 52 9 73 -13 27 -29 73 -31
97 -5 14 15 16 29 11 60 -7 42 -5 58 7 54 4 -2 9 5 11 15 32 119 31 110 6 131
-13 11 -22 22 -19 24 3 3 43 -8 90 -24 83 -28 183 -51 285 -65 46 -6 49 -6 36
10 -11 13 -11 20 -3 28 19 19 14 27 -14 22 -18 -3 -39 5 -75 31 -27 21 -54 33
-60 29 -7 -4 -9 -3 -6 2 9 16 -10 38 -35 39 -35 2 -98 25 -98 36 0 6 9 7 20 4
12 -4 20 -2 20 5 0 6 -5 8 -10 5 -6 -3 -13 1 -16 9 -3 9 -14 16 -23 16 -14 0
-14 2 -1 11 12 9 12 10 -4 5 -10 -4 -30 1 -43 9 -21 14 -22 19 -12 33 11 14
11 15 0 5 -15 -13 -44 -6 -35 8 3 5 9 7 13 5 4 -3 8 2 8 10 0 8 -5 13 -11 11
-23 -9 -48 14 -42 38 6 23 6 23 -41 9 -64 -19 -73 -10 -67 74 3 37 7 72 9 78
2 6 60 23 129 39 77 17 126 33 126 41 0 9 -15 9 -67 -3 -38 -8 -77 -18 -88
-23 -36 -16 -85 -22 -85 -11 0 6 -10 19 -22 30 -24 23 -25 22 54 40 60 14 58
14 59 -6 0 -11 2 -13 6 -5 3 7 2 19 0 27 -5 11 -14 11 -59 -1 -75 -20 -78 -19
-78 20 0 27 -5 35 -22 39 -13 2 -31 8 -40 12 -14 5 -18 2 -18 -14 0 -18 -3
-19 -25 -9 -20 9 -25 18 -25 50 0 35 -2 38 -28 38 -22 0 -31 -7 -42 -32 -7
-18 -15 -36 -18 -40 -2 -5 5 -8 15 -8 15 0 18 -7 15 -45 -4 -50 -14 -62 -57
-66 -21 -3 -29 0 -27 10 2 9 -3 11 -13 7 -9 -3 -13 -2 -10 4 3 6 2 10 -2 10
-5 0 -18 7 -29 15 -17 13 -16 14 14 5 29 -8 32 -7 22 6 -7 8 -38 21 -69 30
-31 9 -66 26 -77 39 -12 13 -25 22 -28 19 -3 -2 -2 2 4 8 5 7 10 18 10 25 0
11 -5 11 -21 2 -12 -6 -19 -7 -15 -1 3 5 -12 12 -34 16 -28 4 -45 14 -57 33
-25 38 -51 63 -65 63 -7 1 -26 12 -43 25 -23 19 -26 25 -12 25 27 0 20 19 -10
26 -52 10 -73 23 -73 43 0 11 -9 25 -20 31 -11 6 -20 8 -20 4 0 -3 -7 0 -16 7
-15 12 -15 14 5 19 29 7 28 23 -1 31 -13 3 -22 11 -20 18 1 7 -1 10 -6 7 -9
-5 -74 49 -67 56 3 2 -9 3 -25 0 -18 -2 -31 0 -31 7 -1 6 -2 17 -3 24 -2 22
-48 57 -77 57 -21 0 -42 13 -75 45 -25 25 -61 52 -80 60 -19 8 -35 19 -35 24
-1 6 -2 17 -3 24 -2 19 -29 36 -58 37 -19 0 -28 5 -28 16 0 14 -3 15 -17 3
-10 -7 -15 -10 -11 -5 4 5 -11 23 -33 42 -28 23 -54 35 -87 39 -26 3 -65 10
-87 15 -32 7 -27 7 28 3 37 -3 67 -2 67 1 0 21 -174 76 -241 76 -16 0 -29 3
-29 8 0 4 -19 8 -42 9 -146 5 -246 21 -269 44 -9 9 -19 15 -22 13 -3 -4 -51
17 -192 81 -47 22 -68 28 -100 29 -16 0 -33 5 -36 10 -4 5 -18 9 -33 9 -14 0
-23 3 -21 7 9 15 -24 19 -35 4 -7 -8 -20 -14 -29 -13 -11 0 -9 3 7 9 33 14 27
27 -15 35 -21 4 -44 12 -52 18 -12 9 -13 9 -7 -1 6 -11 0 -12 -31 -6 -46 8
-55 13 -48 24 6 10 -41 26 -100 34 -28 4 -34 3 -20 -4 32 -14 5 -11 -68 9 -37
10 -70 15 -73 10 -3 -5 13 -12 36 -15 23 -4 39 -11 37 -18 -7 -21 -47 -17
-134 15 -48 17 -105 31 -125 30 -20 -1 -60 9 -90 23 -51 24 -52 24 -23 29 17
2 2 5 -32 6 -34 0 -65 6 -68 11 -3 6 -1 10 6 10 9 0 10 3 2 11 -6 6 -45 15
-87 20 -134 17 -132 28 6 26 70 -1 120 1 110 5 -9 4 -36 7 -59 7 -23 1 -43 6
-45 12 -2 6 -28 14 -57 17 -39 3 -52 2 -47 -7 10 -15 -19 -14 -36 2 -13 12
-21 14 -100 19 -88 6 -37 18 62 15 91 -3 97 -2 68 10 -20 9 -58 13 -100 10
-36 -1 -64 1 -62 5 5 8 -39 13 -81 10 -15 -2 -16 0 -7 7 10 6 7 10 -12 15 -15
4 -24 10 -21 15 7 12 -19 21 -35 11 -15 -9 -52 -1 -45 10 3 5 -4 6 -15 3 -30
-8 -67 4 -67 22 0 11 8 15 27 11 15 -2 34 0 41 5 10 6 2 9 -22 9 -21 0 -69 14
-107 30 -78 33 -82 34 -82 21 0 -5 10 -11 23 -14 12 -4 31 -13 42 -22 11 -8
-6 -4 -38 10 -36 16 -68 23 -85 20 -15 -3 -21 -2 -14 1 6 3 12 10 12 15 0 6
-4 8 -9 5 -17 -11 -146 -16 -181 -7 -31 7 -28 8 29 9 35 1 66 3 69 6 3 4 -4 6
-16 6 -12 0 -22 4 -22 9 0 4 -19 5 -42 0 -24 -4 -56 -8 -73 -8 -29 1 -29 1 -5
9 20 7 16 8 -23 9 -26 1 -75 10 -108 21 -45 16 -76 20 -122 16 -34 -3 -53 -3
-42 0 47 12 49 17 10 25 -57 11 -122 9 -178 -7z m1410 -350 c-3 -3 -12 -4 -19
-1 -8 3 -5 6 6 6 11 1 17 -2 13 -5z m833 -274 c18 -12 2 -12 -25 0 -13 6 -15
9 -5 9 8 0 22 -4 30 -9z m47 -16 c-3 -3 -12 -4 -19 -1 -8 3 -5 6 6 6 11 1 17
-2 13 -5z m303 -64 c-8 -5 -28 -9 -45 -9 -29 1 -29 1 -5 9 14 4 34 8 45 9 16
1 17 -1 5 -9z m2236 -1117 c-10 -10 -19 5 -10 18 6 11 8 11 12 0 2 -7 1 -15
-2 -18z m7 -27 c3 3 8 0 12 -6 5 -8 -3 -10 -26 -8 -18 2 -34 9 -37 16 -3 9 2
10 21 3 14 -5 27 -7 30 -5z m17 -35 c0 -5 -7 -11 -15 -15 -8 -3 -15 -16 -15
-30 0 -18 -7 -25 -27 -29 -30 -6 -56 16 -51 43 5 24 108 54 108 31z m-88 -723
c2 -6 26 -12 54 -13 64 -3 64 -3 64 -15 0 -13 -81 -13 -113 -1 -28 11 -44 41
-23 41 8 0 16 -5 18 -12z m226 -62 c-2 -15 -11 -22 -30 -24 -32 -4 -38 17 -13
42 21 20 47 9 43 -18z"/>
<path d="M1275 3680 c-3 -5 -2 -10 4 -10 5 0 13 5 16 10 3 6 2 10 -4 10 -5 0
-13 -4 -16 -10z"/>
<path d="M1383 3633 c9 -2 23 -2 30 0 6 3 -1 5 -18 5 -16 0 -22 -2 -12 -5z"/>
<path d="M1997 3417 c-4 -10 2 -13 21 -10 24 3 24 2 7 -6 -17 -8 -14 -10 18
-10 40 -1 51 14 15 22 -13 2 -30 8 -39 11 -10 4 -19 2 -22 -7z"/>
<path d="M2124 3380 c17 -6 36 -5 45 0 11 7 3 9 -29 9 -42 -1 -43 -1 -16 -9z"/>
<path d="M3096 3136 c10 -8 21 -11 24 -7 3 5 12 11 20 14 8 3 -3 6 -24 6 -37
1 -38 0 -20 -13z"/>
<path d="M3211 3106 c3 -3 20 -8 39 -11 25 -4 31 -3 20 5 -14 9 -68 15 -59 6z"/>
<path d="M4065 2700 c3 -5 8 -10 11 -10 2 0 4 5 4 10 0 6 -5 10 -11 10 -5 0
-7 -4 -4 -10z"/>
<path d="M5454 1605 c8 -8 18 -15 22 -15 3 0 1 7 -6 15 -7 8 -17 15 -22 15 -5
0 -3 -7 6 -15z"/>
<path d="M4864 1562 c-26 -31 -29 -42 -22 -67 4 -16 17 -41 27 -55 l20 -25 -6
41 c-5 36 3 80 22 127 12 29 -8 19 -41 -21z"/>
<path d="M5470 1540 c-9 -6 -10 -10 -3 -10 6 0 15 5 18 10 8 12 4 12 -15 0z"/>
<path d="M4916 1501 c-4 -7 -5 -15 -2 -18 9 -9 19 4 14 18 -4 11 -6 11 -12 0z"/>
<path d="M5561 1501 c-9 -6 1 -14 35 -26 27 -10 68 -26 91 -37 24 -11 51 -18
60 -15 14 3 10 7 -14 16 -17 7 -49 21 -69 32 -21 10 -45 19 -54 19 -9 0 -20 4
-26 10 -5 5 -15 5 -23 1z"/>
<path d="M4822 1400 c0 -14 2 -19 5 -12 2 6 2 18 0 25 -3 6 -5 1 -5 -13z"/>
<path d="M5144 1402 c-12 -9 -24 -24 -27 -33 -12 -36 65 -97 85 -67 13 21 9
54 -9 87 -21 36 -21 36 -49 13z"/>
<path d="M4950 1376 c0 -13 8 -30 18 -37 15 -13 16 -12 3 3 -7 10 -11 27 -8
38 3 11 1 20 -4 20 -5 0 -9 -11 -9 -24z"/>
<path d="M5770 1380 c8 -5 24 -10 36 -10 11 0 26 -6 33 -12 11 -10 13 -10 7 0
-5 8 2 12 24 12 21 0 29 -4 24 -12 -4 -7 -3 -8 5 -4 15 10 43 -13 34 -28 -4
-6 1 -5 10 3 22 18 22 31 -1 31 -10 0 -22 4 -28 10 -5 5 -43 12 -84 15 -52 4
-70 2 -60 -5z"/>
<path d="M5040 1361 c0 -5 5 -13 10 -16 6 -3 10 -2 10 4 0 5 -4 13 -10 16 -5
3 -10 2 -10 -4z"/>
<path d="M5234 1356 c-9 -23 5 -68 19 -63 18 6 20 52 3 66 -13 11 -17 10 -22
-3z"/>
<path d="M5735 1360 c3 -5 11 -10 16 -10 6 0 7 5 4 10 -3 6 -11 10 -16 10 -6
0 -7 -4 -4 -10z"/>
<path d="M5070 1311 c0 -23 8 -31 25 -24 16 6 9 29 -11 37 -9 3 -14 -1 -14
-13z"/>
<path d="M5120 1300 c0 -5 5 -10 10 -10 6 0 10 5 10 10 0 6 -4 10 -10 10 -5 0
-10 -4 -10 -10z"/>
<path d="M4140 430 c-62 -35 -160 -141 -191 -207 -16 -34 -29 -64 -29 -68 0
-4 -9 -18 -20 -32 l-20 -26 -1 24 c-1 13 0 37 1 53 l2 30 -34 -25 c-83 -62
-172 -123 -220 -150 l-53 -29 206 0 c178 0 208 2 220 16 15 18 118 66 128 60
16 -10 39 24 50 74 7 30 34 103 61 162 28 59 50 111 50 116 0 8 -72 23 -104
21 -6 0 -27 -9 -46 -19z"/>
</g>
</svg>
